<?xml version="1.0" encoding="utf-8"?>
<!-- Generated by IcoMoon.io -->
<!DOCTYPE svg PUBLIC "-//W3C//DTD SVG 1.1//EN" "http://www.w3.org/Graphics/SVG/1.1/DTD/svg11.dtd">
<svg version="1.1" xmlns="http://www.w3.org/2000/svg" xmlns:xlink="http://www.w3.org/1999/xlink" width="22" height="32" viewBox="0 0 22 32">
<path fill="#f77160" d="M7.207 10.561v-7.858c-0.634 0-1.153-0.511-1.153-1.135s0.519-1.135 1.153-1.135h8.072c0.634 0 1.153 0.511 1.153 1.135s-0.519 1.135-1.153 1.135v8.207c3.741 1.7 6.342 5.47 6.342 9.847 0 5.971-4.84 10.811-10.811 10.811s-10.811-4.84-10.811-10.811c0-4.707 3.008-8.712 7.207-10.196zM11.243 28.287c4.324 0 7.829-3.505 7.829-7.829 0-2.268-1.74-7.574-8.407-3.235s-7.251 1.18-7.251 3.235c0 4.324 3.505 7.829 7.829 7.829z"></path>
</svg>
