<?xml version="1.0" encoding="utf-8"?>
<!-- Generated by IcoMoon.io -->
<!DOCTYPE svg PUBLIC "-//W3C//DTD SVG 1.1//EN" "http://www.w3.org/Graphics/SVG/1.1/DTD/svg11.dtd">
<svg version="1.1" xmlns="http://www.w3.org/2000/svg" xmlns:xlink="http://www.w3.org/1999/xlink" width="39" height="32" viewBox="0 0 39 32">
<path fill="#f77160" d="M11.093 5.333c-0.533 0-1.067 0.213-1.493 0.64v0 0l-8.533 8.533c-0.427 0.427-0.64 0.96-0.64 1.493 0 0.64 0.213 1.173 0.64 1.493l8.533 8.533c0.427 0.427 0.96 0.64 1.493 0.64 1.173 0 2.133-0.96 2.133-2.133 0-0.64-0.213-1.173-0.64-1.493v0l-7.040-7.040 7.040-7.040c0.427-0.427 0.64-0.96 0.64-1.493 0-1.173-0.96-2.133-2.133-2.133v0zM38.827 16c0-0.64-0.32-1.173-0.747-1.6l-8.427-8.427c-0.427-0.427-0.96-0.64-1.493-0.64-1.173 0-2.133 0.96-2.133 2.133 0 0.64 0.213 1.173 0.64 1.493v0l7.040 7.040-7.040 7.040c-0.427 0.427-0.64 0.96-0.64 1.493 0 1.173 0.96 2.133 2.133 2.133 0.64 0 1.173-0.213 1.493-0.64l8.533-8.533c0.427-0.32 0.64-0.853 0.64-1.493v0zM21.76 0c-1.067 0-1.92 0.853-2.133 1.813v0l-4.267 27.733v0.32c0 1.173 0.96 2.133 2.133 2.133 1.067 0 1.92-0.853 2.133-1.813v0l4.267-27.733v-0.32c0-1.173-0.96-2.133-2.133-2.133v0z"></path>
</svg>
