<?xml version="1.0" encoding="utf-8"?>
<!-- Generated by IcoMoon.io -->
<!DOCTYPE svg PUBLIC "-//W3C//DTD SVG 1.1//EN" "http://www.w3.org/Graphics/SVG/1.1/DTD/svg11.dtd">
<svg version="1.1" xmlns="http://www.w3.org/2000/svg" xmlns:xlink="http://www.w3.org/1999/xlink" width="21" height="32" viewBox="0 0 21 32">
<path fill="#f77160" d="M20.6 16v-3c0-0.6-0.4-1-1-1s-1 0.4-1 1v3c0 4.4-3.6 8-8 8s-8-3.6-8-8v-3c0-0.6-0.4-1-1-1s-1 0.4-1 1v3c0 5.2 3.9 9.4 9 9.9v2.4l-5.3 1.7c-0.4 0.1-0.7 0.5-0.7 0.9 0 0.6 0.4 1 1 1v0h12c0.6 0 1-0.4 1-1 0-0.4-0.3-0.8-0.6-0.9v0l-5.4-1.8v-2.4c5.1-0.4 9-4.6 9-9.8v0z"></path>
<path fill="#f77160" d="M10.6 0c-3.3 0-6 2.7-6 6v10c0 3.3 2.7 6 6 6s6-2.7 6-6v-10c0-3.3-2.7-6-6-6v0z"></path>
</svg>
