<?xml version="1.0" encoding="UTF-8" standalone="no"?>
<svg width="37px" height="30px" viewBox="0 0 37 30" version="1.1" xmlns="http://www.w3.org/2000/svg" xmlns:xlink="http://www.w3.org/1999/xlink" xmlns:sketch="http://www.bohemiancoding.com/sketch/ns">
    <!-- Generator: Sketch 3.4.2 (15855) - http://www.bohemiancoding.com/sketch -->
    <title>Shape Copy 14</title>
    <desc>Created with Sketch.</desc>
    <defs></defs>
    <g id="Page-1" stroke="none" stroke-width="1" fill="none" fill-rule="evenodd" sketch:type="MSPage">
        <g id="Content-Icons-(Read,-Talk,-Code,-Test)" sketch:type="MSArtboardGroup" transform="translate(-704.000000, -244.000000)" fill="#F77160">
            <g id="Code" sketch:type="MSLayerGroup" transform="translate(691.000000, 243.500000)">
                <g id="Shape-Copy-14" transform="translate(13.000000, 0.000000)" sketch:type="MSShapeGroup">
                    <path d="M10.4,5.5 C9.9,5.5 9.4,5.7 9,6.1 L9,6.1 L9,6.1 L1,14.1 C0.6,14.5 0.4,15 0.4,15.5 C0.4,16.1 0.6,16.6 1,16.9 L9,24.9 C9.4,25.3 9.9,25.5 10.4,25.5 C11.5,25.5 12.4,24.6 12.4,23.5 C12.4,22.9 12.2,22.4 11.8,22.1 L11.8,22.1 L5.2,15.5 L11.8,8.9 C12.2,8.5 12.4,8 12.4,7.5 C12.4,6.4 11.5,5.5 10.4,5.5 L10.4,5.5 Z M36.4,15.5 C36.4,14.9 36.1,14.4 35.7,14 L27.8,6.1 C27.4,5.7 26.9,5.5 26.4,5.5 C25.3,5.5 24.4,6.4 24.4,7.5 C24.4,8.1 24.6,8.6 25,8.9 L25,8.9 L31.6,15.5 L25,22.1 C24.6,22.5 24.4,23 24.4,23.5 C24.4,24.6 25.3,25.5 26.4,25.5 C27,25.5 27.5,25.3 27.8,24.9 L35.8,16.9 C36.2,16.6 36.4,16.1 36.4,15.5 L36.4,15.5 Z M20.4,0.5 C19.4,0.5 18.6,1.3 18.4,2.2 L18.4,2.2 L14.4,28.2 L14.4,28.5 C14.4,29.6 15.3,30.5 16.4,30.5 C17.4,30.5 18.2,29.7 18.4,28.8 L18.4,28.8 L22.4,2.8 L22.4,2.5 C22.4,1.4 21.5,0.5 20.4,0.5 L20.4,0.5 Z"></path>
                </g>
            </g>
        </g>
    </g>
</svg>