<?xml version="1.0" encoding="UTF-8" standalone="no"?>
<svg width="21px" height="32px" viewBox="0 0 21 32" version="1.1" xmlns="http://www.w3.org/2000/svg" xmlns:xlink="http://www.w3.org/1999/xlink" xmlns:sketch="http://www.bohemiancoding.com/sketch/ns">
    <!-- Generator: Sketch 3.4.2 (15855) - http://www.bohemiancoding.com/sketch -->
    <title>Shape Copy 11 + Shape Copy 10</title>
    <desc>Created with Sketch.</desc>
    <defs></defs>
    <g id="Page-1" stroke="none" stroke-width="1" fill="none" fill-rule="evenodd" sketch:type="MSPage">
        <g id="Content-Icons-(Read,-Talk,-Code,-Test)" sketch:type="MSArtboardGroup" transform="translate(-548.000000, -243.000000)" fill="#F77160">
            <g id="Talk" sketch:type="MSLayerGroup" transform="translate(527.000000, 242.500000)">
                <g id="Shape-Copy-11-+-Shape-Copy-10" transform="translate(21.000000, 0.000000)" sketch:type="MSShapeGroup">
                    <path d="M20.6,16.5 L20.6,13.5 C20.6,12.9 20.2,12.5 19.6,12.5 C19,12.5 18.6,12.9 18.6,13.5 L18.6,16.5 C18.6,20.9 15,24.5 10.6,24.5 C6.2,24.5 2.6,20.9 2.6,16.5 L2.6,13.5 C2.6,12.9 2.2,12.5 1.6,12.5 C1,12.5 0.6,12.9 0.6,13.5 L0.6,16.5 C0.6,21.7 4.5,25.9 9.6,26.4 L9.6,28.8 L4.3,30.5 C3.9,30.6 3.6,31 3.6,31.4 C3.6,32 4,32.4 4.6,32.4 L4.6,32.4 L16.6,32.4 C17.2,32.4 17.6,32 17.6,31.4 C17.6,31 17.3,30.6 17,30.5 L17,30.5 L11.6,28.7 L11.6,26.3 C16.7,25.9 20.6,21.7 20.6,16.5 L20.6,16.5 Z" id="Shape-Copy-11"></path>
                    <path d="M10.6,0.5 C7.3,0.5 4.6,3.2 4.6,6.5 L4.6,16.5 C4.6,19.8 7.3,22.5 10.6,22.5 C13.9,22.5 16.6,19.8 16.6,16.5 L16.6,6.5 C16.6,3.2 13.9,0.5 10.6,0.5 L10.6,0.5 Z" id="Shape-Copy-10"></path>
                </g>
            </g>
        </g>
    </g>
</svg>