<?xml version="1.0" encoding="UTF-8" standalone="no"?>
<svg width="25px" height="37px" viewBox="0 0 25 37" version="1.1" xmlns="http://www.w3.org/2000/svg" xmlns:xlink="http://www.w3.org/1999/xlink" xmlns:sketch="http://www.bohemiancoding.com/sketch/ns">
    <!-- Generator: Sketch 3.4.2 (15855) - http://www.bohemiancoding.com/sketch -->
    <title>Shape Copy 9 + Shape Copy 8</title>
    <desc>Created with Sketch.</desc>
    <defs></defs>
    <g id="Page-1" stroke="none" stroke-width="1" fill="none" fill-rule="evenodd" sketch:type="MSPage">
        <g id="Content-Icons-(Read,-Talk,-Code,-Test)" sketch:type="MSArtboardGroup" transform="translate(-871.000000, -241.000000)">
            <g id="Test" sketch:type="MSLayerGroup" transform="translate(853.000000, 241.500000)">
                <g id="Shape-Copy-9-+-Shape-Copy-8" transform="translate(18.000000, 0.000000)" sketch:type="MSShapeGroup">
                    <g id="Group">
                        <path d="M9,3 L9,2.1 L8,2 L9,3 Z" id="Shape-Copy-9" fill="#000000"></path>
                        <path d="M17.6666667,0 L8.33333333,0 C7.6,0 7,0.590625 7,1.3125 C7,2.034375 7.6,2.625 8.33333333,2.625 L8.33333333,16.40625 C8.33333333,18.965625 10.4,21 13,21 C15.6,21 17.6666667,18.965625 17.6666667,16.40625 L17.6666667,2.625 C18.4,2.625 19,2.034375 19,1.3125 C19,0.590625 18.4,0 17.6666667,0 L17.6666667,0 Z" id="Shape-Copy-8" fill="#F77160"></path>
                        <circle id="Oval-9" fill="#F77160" cx="12.5" cy="23.5" r="12.5"></circle>
                        <path d="M13,32.2071068 C17.9995385,32.2071068 22.0524653,28.15418 22.0524653,23.1546415 C22.0524653,20.531746 20.0408063,14.3967769 12.3317215,19.4140845 C4.62263676,24.431392 3.94753471,20.7779985 3.94753471,23.1546415 C3.94753471,28.15418 8.00046147,32.2071068 13,32.2071068 Z" id="Oval-15" fill="#FFFFFF"></path>
                    </g>
                </g>
            </g>
        </g>
    </g>
</svg>