<svg id="Layer_1" data-name="Layer 1" xmlns="http://www.w3.org/2000/svg" viewBox="0 0 380.46 390.52"><defs><style>.cls-1{fill:#f47e6b;}.cls-1,.cls-2{stroke:#fff;stroke-linecap:round;stroke-linejoin:round;stroke-width:22px;}.cls-2{fill:none;}</style></defs><title>wordmark-placeholder</title><g id="Page-1"><g id="Wordmark-Round"><g id="coralProjectLogo-2-Copy-2"><g id="Layer_2" data-name="Layer 2"><rect id="Rectangle-1" class="cls-1" x="11" y="11" width="358.46" height="368.52" rx="40" ry="40"/><path id="Shape" class="cls-2" d="M11.5,116.81c13.5,17,41.06,26.31,56.49,11.11,10.32-10.21,5.79-23.7,20.19-53.41,7-14.63,13.61-25.06,25.07-25.85,13.16-.91,29.83,12.81,32.33,31.86,3.52,25.74-18.83,35.94-13.16,54.43,6.24,20.3,36,16.55,45.37,41.27,3.52,9.3,5.1,25.29-3.06,33.22-14.29,13.95-42.88-12.25-82.7,0-7.49,2.27-24.39,7.48-29.27,21.2s4.08,31.52,16.11,41.27c25.64,20.86,52.18-6.12,91.77,11.11,22.46,9.75,43.67,31.41,49.35,58.4a76.5,76.5,0,0,1-1,34.24" transform="translate(-0.27 -0.13)"/></g><g id="Layer_3" data-name="Layer 3"><path id="Shape-2" data-name="Shape" class="cls-2" d="M142.52,371.72c-11.57-31.18-25.41-41.16-36.3-44.34-12.25-3.52-23.37.79-36.3-7-9.42-5.78-14.41-14.63-17.13-21.2" transform="translate(-0.27 -0.13)"/></g><g id="Layer_4" data-name="Layer 4"><path id="Shape-3" data-name="Shape" class="cls-2" d="M310.86,372.74c-6.81-31-20-48.19-31.2-58.4-18.72-16.9-35.85-17.46-45.37-37.31-0.79-1.7-11-23.81,0-40.25,9.3-13.95,28.13-15.53,36.3-16.1,22.8-1.81,31.76,8.62,59.44,12.13a129.66,129.66,0,0,0,38.34-1" transform="translate(-0.27 -0.13)"/></g><g id="Layer_5" data-name="Layer 5"><path id="Shape-4" data-name="Shape" class="cls-2" d="M369.28,301.19A90.63,90.63,0,0,0,328,304.25a89.1,89.1,0,0,0-32.22,18.14" transform="translate(-0.27 -0.13)"/></g><g id="Layer_6" data-name="Layer 6"><path id="Shape-5" data-name="Shape" class="cls-2" d="M367.8,162.17c-13.16,23.47-25.41,29.25-34.26,30.28-16,1.7-20.76-12.59-45.37-18.14-25.18-5.67-32.22,6.58-52.41,0C213.75,167,202.41,146,196.4,135c-14.29-26.42-13-52.16-12.14-72.57A197.18,197.18,0,0,1,193.34,12" transform="translate(-0.27 -0.13)"/><path id="Shape-6" data-name="Shape" class="cls-2" d="M367.24,80.53c-13-12.7-26-23.59-34.26-30.39A19,19,0,0,0,312,48a2.48,2.48,0,0,0-.57.34,18.29,18.29,0,0,0-8.85,13.95c-0.68,7.94-1.82,20.3-4,31.75-0.79,4.2-7.83,21-25.18,27.78-12.48,4.88-27.68,0-36.3-9.07-13-13.83-8.62-34.7-6-46.38,6.13-28.46,26-46.15,35.28-53.41" transform="translate(-0.27 -0.13)"/></g><g id="Layer_7" data-name="Layer 7"><path id="Shape-7" data-name="Shape" class="cls-2" d="M12.52,189.38a81.23,81.23,0,0,0,43.33,41.27" transform="translate(-0.27 -0.13)"/></g></g></g></g></svg>