<?xml version="1.0" encoding="utf-8"?>
<!-- Generator: Adobe Illustrator 19.1.0, SVG Export Plug-In . SVG Version: 6.00 Build 0)  -->
<svg version="1.1" id="Layer_1" xmlns="http://www.w3.org/2000/svg" xmlns:xlink="http://www.w3.org/1999/xlink" x="0px" y="0px"
	 viewBox="0 0 360 360" style="enable-background:new 0 0 360 360;" xml:space="preserve">
<style type="text/css">
	.st0{fill-rule:evenodd;clip-rule:evenodd;fill:#F47E6B;}
</style>
<path class="st0" d="M7,8c0,57.3,0,114.7,0,172s0,114.7,0,172c57.3,0,114.7,0,172,0s114.7,0,172,0c0-57.3,0-114.7,0-172
	s0-114.7,0-172c-57.3,0-114.7,0-172,0S64.3,8,7,8z M120.7,69.6c1.1,1.3,1.7,2.9,2.3,4.4c3.2,8.5,0.6,17.5-2.1,27.2
	s-5.6,19.9-2.9,30.8c2.8,11.5,8.9,18.8,16.1,25c7.2,6.2,19.2,8.7,22.9,18c2.2,5.6-4.8,9.4-10.7,11.1c-5.8,1.6-13.1,1.4-19.3-0.1
	c-11.9-2.8-24.1-4.5-34.8-3.3S72.1,188,66,197c-7.8-1.1-16.3-6.8-22.9-14.7C36.6,174.5,32,164.5,32,155c0-2.9-0.4-7.2-0.5-11.2
	c-0.1-4,0.2-7.8,1.5-9.8c0.3-0.3,2.3,0.2,4.6,0.9s4.9,1.6,6.4,2.1c5.3,1.8,11.9,2.3,18.4,1.7s12.5-2.2,16.6-4.7
	c13.8-8.2,18-19,20.7-30.8S101.4,77,111,66c1.7-1.9,2.1-2.3,3.1-2.3s2.4,1.1,3.4,2.3 M51,327c-3.1,0-6.7,0.2-10.1,0.1
	s-6.6-0.3-8.9-1.1c0-13.5,0-27,0-40.5s0-27,0-40.5c0-5.8-0.5-12.9-0.7-19.7s0.1-13.4,1.7-18.3c2.5,1.6,5,3.6,7.4,5.6
	c2.5,2,4.7,3.1,7.3,4.7c1.5,0.9,3.4,2.1,5,2.6s3.2,0.9,4.3,2.1c1.6,1.8,1.8,4.6,2.2,7.3c0.4,2.7,0.7,5.4,1.8,7.7
	c2,4.6,5.7,9.1,9.9,13s8.9,7.4,13.1,10c10.3,6.2,24.9,7.8,39.9,9c15,1.2,30.4,2.1,42.1,7c5.3,2.2,10.4,5.8,14.8,10.2
	c4.4,4.4,8,9.5,10.2,14.8c0.8,1.9,1.2,2.1,1.9,4.1c0.6,2,0.8,3.6,1.1,7.9c0,2.4,0.1,5.1,0,7.6c-0.1,2.5-0.4,4.8-1,6.4
	c-7.5,0-15,0-22.5,0s-15,0-22.5,0c-0.8-2.2-1.7-4.3-2.5-6.5s-1.7-4.3-2.5-6.5c-2.8-4.6-6.5-9.4-10.7-13.8s-8.8-8.4-13.3-11.2
	c-3.3-2-7.3-3.8-11.4-5.3c-4.2-1.5-8.5-2.7-12.6-3.7c-2.5-0.6-5.3-0.3-8-0.1s-5.2,0.2-7-0.9c-1.1-0.7-2.3-2.4-3.4-4.2
	S75,270.8,74,270c-2.2-1.6-4.3-1.8-6.3-2s-4.9-0.4-7.7,1c-1.6,0.8-3.4,2-4.6,3.4c-1.2,1.4-2.8,2.9-2.4,4.6c3,16,6,21.2,15.4,25
	c8.7,3.6,21.2,1.1,32.6,6c4.3,1.8,7.4,4.6,10.3,7.7s7,5.4,8.7,9.3c0.1,0.3,0,0.7,0,1s0,0.7,0,1c-3.3,0-6.7,0-10,0s-6.7,0-10,0
	c-1.3-0.5-34.3,0.3-42.9,0.1 M219,327c0-1.8,0-3.7,0-5.5s0-3.7,0-5.5c1.1,0.3,2,0.5,2.8,0.8c0.8,0.3,1.5,0.7,2.2,1.2
	c1.5,1.1,2.5,2,3.1,3.3c0.6,1.3,0.8,3,0.9,5.7c-1.5,0-3,0-4.5,0S220.5,327,219,327z M326,327c-4.8,0-9.7,0-14.5,0s-9.7,0-14.5,0
	c-0.8-5.9-2.6-11-4.8-15.7c-2.2-4.7-4.8-9-7.2-13.3c6.9-4.3,12.8-8.8,19.1-10.7c6.3-1.9,13.1-1.3,21.9,4.7c0,5.8,0,11.7,0,17.5
	S326,321.2,326,327z M326,263c-9.9-3.5-21.4-2.3-31.7,1c-10.3,3.4-19.3,8.9-24.3,14c-3.5-0.7-6.4-2.8-9.1-5.2
	c-2.7-2.4-5.2-5-7.9-6.8c-8.9-5.6-17.9-10.8-22.5-17.7c-4.6-6.9-8.9-19.5,3.5-28.3c13.6-9.5,30.1-1.7,44.6,1.6s29.5,7.5,47.4,7.4
	c0,5.7,0,11.3,0,17S326,257.3,326,263z M326,175c0,4.8,0,9.7,0,14.5s0,9.7,0,14.5c-16.4-0.2-35.5-5.9-54-9.5s-36.3-5-50,3.5
	c-2.9,1.8-5.6,4.3-7.9,7c-2.3,2.8-4.4,5.9-6.1,9c-13.6,24.2-6.7,41,6.3,54.4c13,13.5,32,23.6,42.7,34.6c3.2,3.2,5.2,7.2,7.2,11.3
	s5.4,7.4,6.8,11.7c0.1,0.2,0,0.2,0,0.5c0,0.2,0,0.3,0,0.5c-2.5,0.1-5.9,0.3-9.2,0.3c-3.2,0-6.3-0.3-7.8-1.3
	c-1.2-1.9-1.5-4.7-1.7-7.4c-0.2-2.8-0.4-5.5-1.3-7.6c-2.9-6.8-7.4-11.8-13.6-15.2s-14.4-5-24.4-4.8c-4.3-9.2-10.2-17.6-17.4-24.7
	S179.8,253.6,170,250c-9.6-3.5-21.9-3.8-34.1-4.2s-24.5-0.9-33.9-4.8c-5.9-2.4-8.9-5-11.3-8.1c-2.4-3.1-5.9-5.6-7.7-10.9
	c-1.2-3.6-0.2-6.3,0.7-8.1s2.2-3.5,4.3-4.9c15.5-10.5,36.1,0.5,51.6,1.4c15.6,0.9,28.9-1.6,38.4-19.4c1.5-2.7,3-6.8,3.8-11.3
	c0.8-4.5,0.8-9.3-0.8-13.7c-3.2-8.7-11.5-14.1-19.6-19.2s-16-10-18.4-17.8c-1.8-5.8-1.2-12.5,0.2-19c1.4-6.5,3.6-12.8,4.8-18
	c3.2-14.4,0.2-26.5-6-35.5c-6.2-9.1-15.6-15.1-25-17.5c-4.7-1.2-8.7-0.2-11.9,1.4s-5.9,4-8.1,5.6c-5.8,4.2-9.6,9.4-12.4,15.5
	S79.9,74.9,78,83c-0.9,3.8-1,7.3-1.1,10.5s-0.5,6.3-1.9,9.5c-0.8,1.9-2.3,3.4-3.8,4.7S68.7,111,67,112c-10.1,6.1-20.4,1-26.2-3.4
	S32,96.2,32,83c0-2.8-0.2-5.7-0.3-8.5c-0.1-2.8-0.1-5.7,0.3-8.5c0.7-5,4.1-11.1,8.5-16.2s9.8-9.4,14.4-10.9c2.6-1.6,9-3.1,15.7-4.2
	S84.3,33,88,33c12,0,24,0,36,0s24,0,36,0c-0.1,8.3-1.6,18.3-2.6,28.5C156.5,71.7,156.1,82,158,91c4.1,19.3,7.7,35.5,14.3,48.7
	c6.6,13.2,16.3,23.3,32.7,30.3c7.1,3,16.1,2.7,25,2.1c9-0.5,17.9-1.3,25,0.9c7.8,2.4,15.2,8.9,23.7,13.5s18.1,7.5,30.3,2.5
	c3.4-1.4,6.2-3.5,8.7-5.8c2.5-2.3,4.8-4.9,7.3-7.2 M186,33c6.2,0,12.3,0,18.5,0s12.3,0,18.5,0c-2.8,11.1-9.9,21.6-14.8,33.1
	c-4.9,11.5-7.8,24-2.2,38.9c1.1,3.1,2.3,6.1,3.7,8.9s3.1,5.2,5.3,7.1c17.5,14.9,37,13.6,52,3.4s14.5-38.9,18-55
	c1.6-7.3,20.3,9,25.6,12.9c5.3,3.9,10.1,8.3,15.4,11.7c0,7.2,0,14.3,0,21.5s0,14.3,0,21.5c-1.8,1.7-3.7,3.3-5.5,5s-3.8,3.2-5.5,5
	c-3,3.3-5.2,6.7-7.8,9.8c-2.6,3.1-4.3,7.5-8.2,9.2c-7.7,3.3-13.6-2.9-18.3-6.4c-4.7-3.4-8.7-7.4-14.7-9.6
	c-6.2-2.3-13.8-1.9-21.6-1.4c-7.8,0.5-16,1.2-23.4-0.6c-10.9-2.7-18.5-8.5-24.1-16.4c-5.6-7.9-9.7-17.8-11.4-28.9
	c-0.5-3-0.8-5.8-1-8.8s-0.1-6-0.5-9c-0.6-4.2-1.3-15.1-1.1-25.9 M326,62c-6.9-3.6-16.9-10-27.5-14.1c-10.6-4.1-24.9-9-31.5,0.1
	c-6.8,9.4-3.6,22.2-3.8,31.7c-0.3,9.5,0.1,17.4-11.2,23.3c-2.1,1.1-4.8,2.3-7.7,2.8s-5.4-0.5-8.3-1.8c-1.9-0.8-3.5-1.6-4.6-2.9
	S229.9,98,229,96c-1.1-2.6-1.8-5.7-1.4-9.1c0.4-3.5,1.4-7.1,2.4-9.9c2.8-7.4,6.2-14.5,9.8-21.7c3.5-7.2,7.2-14.5,10.2-22.3
	c12.7,0,25.3,0,38,0s25.3,0,38,0c0,4.8,0,9.7,0,14.5S326,57.2,326,62z"/>
</svg>
